<svg width="790" height="957" viewBox="0 0 790 957" fill="none" xmlns="http://www.w3.org/2000/svg">
<g filter="url(#filter0_d_14_2)">
<path d="M486.995 27L432.995 2L360.995 27L299.995 2L233.995 27L174.495 2L125.995 21.5L85.9948 2H53.4948L7.49476 38.5L31.4948 92L6.99743 131.5L31.4948 189.5L7.4593 249.249L23.4948 296.5L6.96197 331.749L23.4948 381L6.96197 427.5L31.4948 506L1.99476 543.5L17.9948 601.5L1.99476 640L17.9948 691.5L1.99476 725L17.9948 752.5L1.99476 820.5L6.96197 889L17.9948 939.5L84.4948 942.75L116.995 929L150.995 946L187.995 938.5L227.995 949.5L259.995 938.5L296.495 946L370.995 938.5L463.995 949.5L514.995 938.5L567.495 949.5L622.995 938.5L675.495 949.5L724.495 938.5L782.995 949.5V858L760.495 820.5L782.995 741L767.495 700L782.995 628.5L764.495 573L782.995 491.5L760.495 446L782.995 349.5L764.495 301.5L782.995 239.5L767.495 211.5L782.995 138L760.495 80.5L782.995 2H684.745L640.495 27L586.495 2H523.495L486.995 27Z" fill="white"/>
<path d="M486.995 27L432.995 2L360.995 27L299.995 2L233.995 27L174.495 2L125.995 21.5L85.9948 2H53.4948L7.49476 38.5L31.4948 92L6.99743 131.5L31.4948 189.5L7.4593 249.249L23.4948 296.5L6.96197 331.749L23.4948 381L6.96197 427.5L31.4948 506L1.99476 543.5L17.9948 601.5L1.99476 640L17.9948 691.5L1.99476 725L17.9948 752.5L1.99476 820.5L6.96197 889L17.9948 939.5L84.4948 942.75L116.995 929L150.995 946L187.995 938.5L227.995 949.5L259.995 938.5L296.495 946L370.995 938.5L463.995 949.5L514.995 938.5L567.495 949.5L622.995 938.5L675.495 949.5L724.495 938.5L782.995 949.5V858L760.495 820.5L782.995 741L767.495 700L782.995 628.5L764.495 573L782.995 491.5L760.495 446L782.995 349.5L764.495 301.5L782.995 239.5L767.495 211.5L782.995 138L760.495 80.5L782.995 2H684.745L640.495 27L586.495 2H523.495L486.995 27Z" stroke="black" stroke-width="4" stroke-linejoin="bevel"/>
</g>
<defs>
<filter id="filter0_d_14_2" x="0" y="0" width="789.995" height="956.486" filterUnits="userSpaceOnUse" color-interpolation-filters="sRGB">
<feFlood flood-opacity="0" result="BackgroundImageFix"/>
<feColorMatrix in="SourceAlpha" type="matrix" values="0 0 0 0 0 0 0 0 0 0 0 0 0 0 0 0 0 0 127 0" result="hardAlpha"/>
<feOffset dx="5" dy="5"/>
<feComposite in2="hardAlpha" operator="out"/>
<feColorMatrix type="matrix" values="0 0 0 0 0 0 0 0 0 0 0 0 0 0 0 0 0 0 1 0"/>
<feBlend mode="normal" in2="BackgroundImageFix" result="effect1_dropShadow_14_2"/>
<feBlend mode="normal" in="SourceGraphic" in2="effect1_dropShadow_14_2" result="shape"/>
</filter>
</defs>
</svg>
